<svg xmlns="http://www.w3.org/2000/svg" viewBox="0 0 64 64" role="img" aria-label="Hospital Roster Builder">
<defs><linearGradient id="a" x1="8" y1="6" x2="56" y2="58"><stop stop-color="#9f1239"/><stop offset=".55" stop-color="#6d28d9"/><stop offset="1" stop-color="#1e3a8a"/></linearGradient></defs>
<path d="M32 3 55 11v18c0 15-9.5 25.7-23 32C18.5 54.7 9 44 9 29V11z" fill="url(#a)"/>
<path d="M32 8.5 50 15v14c0 11.6-6.8 20.4-18 26.3C20.8 49.4 14 40.6 14 29V15z" fill="none" stroke="#fff" stroke-width="2.5" opacity=".9"/>
<rect x="20" y="20" width="24" height="23" rx="4" fill="#fff"/>
<path d="M20 27h24M26 17v7M38 17v7" stroke="#9f1239" stroke-width="3" stroke-linecap="round"/>
<g fill="#6d28d9"><rect x="24" y="31" width="4" height="4" rx="1"/><rect x="30" y="31" width="4" height="4" rx="1"/><rect x="36" y="31" width="4" height="4" rx="1"/><rect x="24" y="37" width="4" height="3" rx="1"/><rect x="30" y="37" width="10" height="3" rx="1"/></g>
</svg>